# xmcd
#
# Track frame offsets:
# 150
# 21458
# 35730
# 49233
# 64175
# 82048
#
# Disc length: 1299 seconds
#
#
# Revision: 3
# Processed by: cddbd v1.4PL0 Copyright (c) Steve Scherf et al.
# Submitted via: FreeRIP 2.51 
#
DISCID=53051106
DTITLE=Ntalaras G.-Katsimichas X.+P. - Yparxei logos
DYEAR=1991
DGENRE=GREEK
TTITLE0=Kalwsorisma
TTITLE1=An yparxei logos
TTITLE2=Ti pa8os
TTITLE3=Canzone per te
TTITLE4=Paliatsos kai o lhsths
TTITLE5=Gela pouli mou
EXTD=
EXTT0=
EXTT1=
EXTT2=
EXTT3=
EXTT4=
EXTT5=
PLAYORDER=
